<?xml version="1.0" encoding="UTF-8"?>
<svg width="96px" height="96px" viewBox="0 0 96 96" version="1.1" xmlns="http://www.w3.org/2000/svg">
    <path stroke="none" stroke-width="1" d="M74.6666667,8 C82.0304633,8 88,13.9695367 88,21.3333333 L88,21.3333333 L88,74.6666667 C88,82.0304633 82.0304633,88 74.6666667,88 L74.6666667,88 L21.3333333,88 C13.9695367,88 8,82.0304633 8,74.6666667 L8,74.6666667 L8,21.3333333 C8,13.9695367 13.9695367,8 21.3333333,8 L21.3333333,8 Z M74.7878788,14 L21.2121212,14 C17.2289767,14 14,17.2289767 14,21.2121212 L14,21.2121212 L14,74.7878788 C14,78.7710233 17.2289767,82 21.2121212,82 L21.2121212,82 L74.7878788,82 C78.7710233,82 82,78.7710233 82,74.7878788 L82,74.7878788 L82,21.2121212 C82,17.2289767 78.7710233,14 74.7878788,14 L74.7878788,14 Z M71,65 C72.6568542,65 74,66.3431458 74,68 C74,69.6568542 72.6568542,71 71,71 L25,71 C23.3431458,71 22,69.6568542 22,68 C22,66.3431458 23.3431458,65 25,65 L71,65 Z M71,51 C72.6568542,51 74,52.3431458 74,54 C74,55.6568542 72.6568542,57 71,57 L25,57 C23.3431458,57 22,55.6568542 22,54 C22,52.3431458 23.3431458,51 25,51 L71,51 Z M43,26 C44.6568542,26 46,27.3431458 46,29 C46,30.6568542 44.6568542,32 43,32 L25,32 C23.3431458,32 22,30.6568542 22,29 C22,27.3431458 23.3431458,26 25,26 L43,26 Z" id="形状结合" fill="#000" fill-rule="nonzero"></path>
</svg>